<svg xmlns="http://www.w3.org/2000/svg" version="1.1" xmlns:xlink="http://www.w3.org/1999/xlink" xmlns:svgjs="http://svgjs.dev/svgjs" width="1000" height="1125" viewBox="0 0 1000 1125"><g transform="matrix(1,0,0,1,1.7053025658242404e-13,0)"><svg viewBox="0 0 320 360" data-background-color="#ffffff" preserveAspectRatio="xMidYMid meet" height="1125" width="1000" xmlns="http://www.w3.org/2000/svg" xmlns:xlink="http://www.w3.org/1999/xlink"><defs></defs><g id="tight-bounds" transform="matrix(1,0,0,1,0,0)"><svg viewBox="0 0 320 360" height="360" width="320"><g><svg></svg></g><g><svg viewBox="0 0 320 360" height="360" width="320"><g><path d="M20.961 227.22l3.726 4.658-1.863-6.056c-0.466-2.795-3.726 0.466-1.863 1.398M25.153 224.425c1.397 2.329 2.795 4.658 2.795 6.987 0 3.261 2.795 4.658 5.123 5.589-3.261-3.726-5.124-13.974-7.918-12.576M204.017 26.929c7.918 0 15.371-0.932 23.756 0.931 20.495 5.124 37.729 15.371 49.374 29.811l32.606 52.169c1.397 13.042 4.192 27.482 3.726 43.319 3.261 0 2.795-4.658 6.521-5.59-3.726 9.316-5.59 20.961-6.521 34.469-2.329-7.453 0-18.632 0.466-24.687-3.261 5.124-5.124 1.397-5.124-0.932 0.466-3.726-1.397-3.261-2.795-4.658-5.124-4.658-8.384-9.782-12.11-17.7 2.329-6.055 2.795-14.905-4.658-19.563-2.329-1.397-5.124-3.726-6.521-7.453-1.863-5.124-5.124-11.179-4.193-19.097 0.466-2.329-6.987 5.124-11.179 1.863-18.166-12.576-36.332-27.016-58.224-39.127-11.645 0-20.029-4.192-24.221-9.316-3.726-4.658-0.932-10.713 4.658-11.179 3.261 0 6.987-0.932 9.782 0.932 0.466-1.863 2.329-4.192 4.657-4.192M157.904 16.215l0.932 0.466c4.658 0.932 6.987 7.453 12.11 5.124 0 3.261 0.466 6.521-0.466 8.85-1.397 3.726-5.59 3.726-8.85 3.726-31.208-1.863-49.374 11.179-68.471 22.358-5.124 3.261-10.713 5.59-14.906 9.782-20.029 18.632-41.921 35.866-47.045 70.335l-4.192 38.195c-0.466 4.192-5.124 8.384-4.192 13.508l3.26 22.824c-3.261-3.261-5.124 0.932-4.192 2.795 0.466 1.397 2.329 6.055 5.124 1.863 3.726 6.987 7.453 20.495 12.576 26.55 15.837 18.632 36.332 35.4 53.101 52.169 4.192-0.932 7.453-0.932 8.384-3.727 1.397 2.795-1.397 5.59-3.726 6.056 7.453 4.658 15.837 8.85 27.016 9.781 14.44 0.932 27.948 3.261 40.524 6.522 6.521-1.863 13.042-2.795 20.029-3.261 2.329 0 3.726-3.726 6.521-4.658l0.466-4.658c2.795 4.192 2.329-1.397 0.466-4.192 3.261 2.795 4.192 5.124 5.589 6.987 0-1.397 3.726-6.521 3.727-0.466l0.931-6.055c1.397-0.932 1.863 5.124 3.261 0.931 1.397-4.192 4.192-0.932 6.987-2.329-0.932 1.863-0.466 5.59 2.794 3.261l3.727-3.261c2.329 5.59 6.055 3.261 7.918 2.329 20.495-13.042 40.99-28.413 60.553-43.784l-0.466 6.055 2.329-7.453c2.329 2.329 4.192 0.466 5.124-0.931 2.795-4.658 6.521-9.316 12.577-13.508-7.453 20.029-16.303 35.866-27.482 48.908l-4.658 5.59c0 3.261-0.932 7.453-4.658 7.918-1.863 0.466-5.59-0.932-8.384 1.863-1.397 1.863 3.261 5.59-0.466 2.795-3.261-2.329-6.521 0-10.248 0.932-2.795 0.932 1.863 3.726 2.795 5.589 0.932 1.863 1.863 3.726 1.398 6.056l-5.124-5.59c-6.055 3.261-9.782 9.316-14.906 13.974-2.329 1.863-1.397 5.124-1.397 7.918-3.261 0-6.987-0.932-8.85 0.932-1.397 1.863-0.932 4.658-0.932 7.453-4.658-0.466-5.124-7.453-9.315-6.056-4.192 0.932-8.85 1.397-12.577 3.727 2.795 5.59-4.658 2.329-3.726 3.26-6.987-4.192-13.042-7.453-20.495-4.658-15.837-5.124-35.4-2.795-49.84-0.931 0-2.329 0.466-4.658-0.466-5.124-0.932 2.329-3.726 1.397-3.26 1.397-8.85-6.055-17.7-9.782-27.016-14.905-8.384 0.932-16.303-3.261-18.632-5.59-6.521-6.055-13.974-2.795-20.029-4.192-13.042-3.261-17.7-16.769-19.098-26.084-0.932-4.658-4.658-6.521-6.055-6.056-6.055-19.563-15.371-37.263-22.824-55.429-1.863-4.658-1.397-9.316-1.397-14.44 2.329 0.932 4.658 0.466 4.192-2.794-2.329-15.371-7.918-27.016-13.974-38.195 3.261-15.837 3.726-34.469 11.179-48.443 6.521-12.576 18.632-19.098 27.016-29.811 2.795-3.726 2.795-8.85 5.59-12.11 9.316-9.316 18.632-19.098 28.879-27.482 4.658-3.726 10.247 0 17.234-1.397 2.329-8.384 11.645-15.837 20.495-13.508 3.726 0.932 11.179-8.85 13.508-9.782 3.726-1.397 1.863 3.726 1.863 6.987 8.85-6.987 20.961-10.713 32.14-14.906" fill="#ceb700" data-fill-palette-color="tertiary"></path></g><g transform="matrix(1,0,0,1,64,154.89060836496398)"><svg viewBox="0 0 192 50.218783270072024" height="50.218783270072024" width="192"><g><svg viewBox="0 0 192 50.218783270072024" height="50.218783270072024" width="192"><g><svg viewBox="0 0 192 50.218783270072024" height="50.218783270072024" width="192"><g><svg viewBox="0 0 192 50.218783270072024" height="50.218783270072024" width="192"><g><svg viewBox="0 0 192 34.87760886369493" height="34.87760886369493" width="192"><g transform="matrix(1,0,0,1,0,0)"><svg width="192" viewBox="4.349999904632568 -35.25 194.02999877929688 35.25" height="34.87760886369493" data-palette-color="#ceb700"><path d="M8.45 0L4.35 0 4.35-35.25 8.45-35.25 8.45 0ZM33.9-9.7L47.1-35.25 50.45-35.25 50.45 0 46.7 0 46.75-27.3 35.3-5.6 32.4-5.6 20.9-27.1 20.95 0 17.15 0 17.15-35.25 20.55-35.25 33.9-9.7ZM90.3 0L86.15 0 82.25-9.05 63.85-9.05 59.95 0 55.75 0 71.25-35.25 74.8-35.25 90.3 0ZM73.05-30.5L65.3-12.45 80.8-12.45 73.05-30.5ZM130.19 0L108.44 0 108.44-35.25 112.54-35.25 112.54-3.5 130.19-3.5 130.19 0ZM141.84 0L137.69 0 137.69-31.75 125.44-31.75 125.44-35.25 154.14-35.25 154.14-31.75 141.84-31.75 141.84 0ZM159.09 0L159.09-35.25 170.94-35.25Q179.39-35.25 184.01-30.68 188.64-26.1 188.64-17.65L188.64-17.65Q188.64-9.2 184.01-4.6 179.39 0 170.94 0L170.94 0 159.09 0ZM163.19-3.5L170.69-3.5Q184.39-3.5 184.39-17.65L184.39-17.65Q184.39-31.75 170.69-31.75L170.69-31.75 163.19-31.75 163.19-3.5ZM193.28 0L193.28-5.1 198.38-5.1 198.38 0 193.28 0Z" opacity="1" transform="matrix(1,0,0,1,0,0)" fill="#ceb700" class="undefined-text-0" data-fill-palette-color="primary" id="text-0"></path></svg></g></svg></g><g transform="matrix(1,0,0,1,79.27680000000002,43.111375253800574)"><svg viewBox="0 0 112.72319999999998 7.107408016271449" height="7.107408016271449" width="112.72319999999998"><g transform="matrix(1,0,0,1,0,0)"><svg width="112.72319999999998" viewBox="1.399999976158142 -36.79999923706055 599.4364624023438 37.79999923706055" height="7.107408016271449" data-palette-color="#ceb700"><path d="M21.6-28.6L11.65-29.3 11.65-17 23-17.85 23-13.05 11.65-13.5 11.65-3.25 17.6-2.45 17.55 0 1.7 0 1.4-1.6Q3.2-2.55 5.55-3.35L5.55-3.35 5.55-29.85 1.95-30.2 2-32.7 26.45-32.7 26.5-31.3Q26.5-27.65 25.8-23.75L25.8-23.75 22.35-23.75 21.6-28.6ZM34.35-28.3L34.35-28.3Q31.6-29.45 29.8-31.8L29.8-31.8Q31.3-34.8 33.5-36.35L33.5-36.35Q36.05-35.2 37.85-32.65L37.85-32.65Q36.7-29.85 34.35-28.3ZM37-22.45L37-3.6Q39.3-3.2 40.55-2.4L40.55-2.4 40.35 0 27.55 0 27.35-1.7Q28.8-2.45 31.15-3.15L31.15-3.15 31.15-20.35 27.4-20.4 26.9-22.8Q30.35-24.2 34.75-24.45L34.75-24.45 37-22.45ZM67.5-16.4L67.5-3.6Q69.8-3.1 71.05-2.4L71.05-2.4 70.8 0 59.05 0 58.85-1.7 61.65-2.85 61.65-14.6Q61.65-19.75 58.5-19.75L58.5-19.75Q56.35-19.75 52.2-17.1L52.2-17.1 52.2-3.55Q54.25-3 55.3-2.4L55.3-2.4 55.1 0 42.95 0 42.75-1.7Q43.95-2.35 46.35-3.1L46.35-3.1 46.35-20.35 42.6-20.4 42.1-22.8Q45.55-24.2 49.95-24.45L49.95-24.45 52.2-22.35 52.2-19.5Q58.3-23.85 61.5-24.4L61.5-24.4Q63-24.2 64.52-23.25 66.05-22.3 66.84-20.95L66.84-20.95Q67.45-19.85 67.5-16.4L67.5-16.4ZM96.14-4.2L96.74-2 91.19 0.8Q90.24 0.7 88.99-0.33 87.74-1.35 87.09-2.75L87.09-2.75 81.59 0.7 80.24 0.8Q77.19 0.8 75.22-1 73.24-2.8 73.24-5.35L73.24-5.35Q73.24-8.95 76.94-10.9L76.94-10.9 86.59-11.15 86.59-15.95Q86.59-19.95 84.19-21.2L84.19-21.2Q81.54-21.1 79.49-20.4L79.49-20.4 78.84-15.1 75.44-14.95Q74.09-17.75 74.19-21.45L74.19-21.45Q76.64-22.7 80.42-23.75 84.19-24.8 85.94-24.8L85.94-24.8Q87.64-24.8 89.32-23.73 90.99-22.65 91.89-21.25L91.89-21.25Q92.44-20.25 92.49-17.45L92.49-17.45 92.49-4.9Q92.49-3.85 93.74-3.85L93.74-3.85 96.14-4.2ZM80.39-3.3L80.39-3.3Q82.79-3.3 86.59-4.8L86.59-4.8 86.59-8.4 84.84-8.45Q79.24-8.45 79.24-5.55L79.24-5.55Q79.24-4.1 80.39-3.3ZM122.39-16.4L122.39-3.6Q124.69-3.1 125.94-2.4L125.94-2.4 125.69 0 113.94 0 113.74-1.7 116.54-2.85 116.54-14.6Q116.54-19.75 113.39-19.75L113.39-19.75Q111.24-19.75 107.09-17.1L107.09-17.1 107.09-3.55Q109.14-3 110.19-2.4L110.19-2.4 109.99 0 97.84 0 97.64-1.7Q98.84-2.35 101.24-3.1L101.24-3.1 101.24-20.35 97.49-20.4 96.99-22.8Q100.44-24.2 104.84-24.45L104.84-24.45 107.09-22.35 107.09-19.5Q113.19-23.85 116.39-24.4L116.39-24.4Q117.89-24.2 119.42-23.25 120.94-22.3 121.74-20.95L121.74-20.95Q122.34-19.85 122.39-16.4L122.39-16.4ZM146.64-2.5L139.69 0.7 138.74 0.75Q133.44 0.75 130.14-2.78 126.84-6.3 126.84-11.8L126.84-11.8Q126.84-17.35 130.19-20.98 133.54-24.6 138.64-24.6L138.64-24.6Q144.19-24.6 147.04-20.25L147.04-20.25 142.99-16.6Q139.49-20.3 135.59-21L135.59-21Q132.74-17.7 132.74-12.9L132.74-12.9Q132.74-8.75 134.76-6.15 136.79-3.55 140.39-3.55L140.39-3.55Q142.84-3.55 145.69-4.85L145.69-4.85 146.64-2.5ZM155.59-28.3L155.59-28.3Q152.84-29.45 151.04-31.8L151.04-31.8Q152.54-34.8 154.74-36.35L154.74-36.35Q157.29-35.2 159.09-32.65L159.09-32.65Q157.94-29.85 155.59-28.3ZM158.24-22.45L158.24-3.6Q160.54-3.2 161.79-2.4L161.79-2.4 161.59 0 148.79 0 148.59-1.7Q150.04-2.45 152.39-3.15L152.39-3.15 152.39-20.35 148.64-20.4 148.14-22.8Q151.59-24.2 155.99-24.45L155.99-24.45 158.24-22.45ZM187.23-4.2L187.83-2 182.28 0.8Q181.33 0.7 180.08-0.33 178.83-1.35 178.18-2.75L178.18-2.75 172.68 0.7 171.33 0.8Q168.28 0.8 166.31-1 164.33-2.8 164.33-5.35L164.33-5.35Q164.33-8.95 168.03-10.9L168.03-10.9 177.68-11.15 177.68-15.95Q177.68-19.95 175.28-21.2L175.28-21.2Q172.63-21.1 170.58-20.4L170.58-20.4 169.93-15.1 166.53-14.95Q165.18-17.75 165.28-21.45L165.28-21.45Q167.73-22.7 171.51-23.75 175.28-24.8 177.03-24.8L177.03-24.8Q178.73-24.8 180.41-23.73 182.08-22.65 182.98-21.25L182.98-21.25Q183.53-20.25 183.58-17.45L183.58-17.45 183.58-4.9Q183.58-3.85 184.83-3.85L184.83-3.85 187.23-4.2ZM171.48-3.3L171.48-3.3Q173.88-3.3 177.68-4.8L177.68-4.8 177.68-8.4 175.93-8.45Q170.33-8.45 170.33-5.55L170.33-5.55Q170.33-4.1 171.48-3.3ZM199.18-34.8L199.18-3.6Q201.48-3.2 202.73-2.4L202.73-2.4 202.53 0 189.73 0 189.53-1.7Q190.98-2.45 193.33-3.15L193.33-3.15 193.33-32.65 189.58-32.75 189.08-35.15Q192.53-36.55 196.93-36.8L196.93-36.8 199.18-34.8ZM243.18-8.85L243.18-8.85Q243.18-4.5 239.85-1.75 236.53 1 231.48 1L231.48 1Q228.63 1 225.35 0.1 222.08-0.8 220.23-2.35L220.23-2.35 220.28-2.5 220.23-4.25Q220.23-8.1 220.88-11.2L220.88-11.2 224.03-11.2 225.63-4.6Q228.78-2.7 233.13-2.7L233.13-2.7 234.23-2.75Q237.03-4.15 237.03-7.4L237.03-7.4Q237.03-10.2 233.63-12.15L233.63-12.15 225.73-16.2Q220.38-19.35 220.38-24.25L220.38-24.25Q220.38-28.45 223.83-31.08 227.28-33.7 232.63-33.7L232.63-33.7Q236.73-33.7 241.68-32.05L241.68-32.05Q241.93-27.85 241.03-23.2L241.03-23.2 237.68-23.2 236.73-28.4Q233.93-30.05 230.13-30.05L230.13-30.05 228.63-30Q226.28-28.55 226.28-25.7L226.28-25.7Q226.28-23.05 229.88-21.15L229.88-21.15 237.38-17.45Q243.18-14.2 243.18-8.85ZM264.72-12.4L251.97-12.6Q251.97-8.35 254.2-6 256.42-3.65 259.87-3.65L259.87-3.65Q262.57-3.65 266.27-5.35L266.27-5.35 267.17-3 259.37 0.7Q253.57 1 249.85-2.45 246.12-5.9 246.12-11.45L246.12-11.45Q246.12-16.85 249.6-20.73 253.07-24.6 258.02-24.6L258.02-24.6Q262.22-24.6 264.95-21.98 267.67-19.35 267.62-15.2L267.62-15.2 264.72-12.4ZM255.87-21.2L255.87-21.2Q253.22-19.7 252.32-15.6L252.32-15.6 262.07-16.1Q261.67-18.4 259.95-19.83 258.22-21.25 255.87-21.2ZM290.07-23.05L290.07-23.05Q290.17-18.75 288.72-14.25L288.72-14.25 285.47-14.25 284.67-19.85Q281.27-17.6 278.77-14.45L278.77-14.45 278.77-3.75Q282.52-3.25 283.97-2.4L283.97-2.4 283.77 0 269.42 0 269.22-1.7Q270.82-2.5 272.92-3.15L272.92-3.15 272.92-20.35 269.17-20.4 268.67-22.8Q272.12-24.2 276.52-24.45L276.52-24.45 278.77-22.45 278.77-18.2 283.87-23.75Q285.07-24.25 286.42-24.25L286.42-24.25Q288.57-24.25 290.07-23.05ZM316.67-23.6L316.92-21.55 313.97-20.3Q309.37-7.4 306.42-0.15L306.42-0.15Q304.92 0.35 302.57 0.35L302.57 0.35 299.82 0.15 292.62-20.25 289.72-21.05 289.77-23.6 301.22-23.6 301.47-21.55 298.97-20.5 302.37-9.65 303.12-4.8 304.17-4.8Q305.97-10.75 308.22-20.5L308.22-20.5 305.62-21.05 305.67-23.6 316.67-23.6ZM324.52-28.3L324.52-28.3Q321.77-29.45 319.97-31.8L319.97-31.8Q321.47-34.8 323.67-36.35L323.67-36.35Q326.22-35.2 328.02-32.65L328.02-32.65Q326.87-29.85 324.52-28.3ZM327.17-22.45L327.17-3.6Q329.47-3.2 330.72-2.4L330.72-2.4 330.52 0 317.72 0 317.52-1.7Q318.97-2.45 321.32-3.15L321.32-3.15 321.32-20.35 317.57-20.4 317.07-22.8Q320.52-24.2 324.92-24.45L324.92-24.45 327.17-22.45ZM352.31-2.5L345.36 0.7 344.41 0.75Q339.11 0.75 335.81-2.78 332.51-6.3 332.51-11.8L332.51-11.8Q332.51-17.35 335.86-20.98 339.21-24.6 344.31-24.6L344.31-24.6Q349.86-24.6 352.71-20.25L352.71-20.25 348.66-16.6Q345.16-20.3 341.26-21L341.26-21Q338.41-17.7 338.41-12.9L338.41-12.9Q338.41-8.75 340.44-6.15 342.46-3.55 346.06-3.55L346.06-3.55Q348.51-3.55 351.36-4.85L351.36-4.85 352.31-2.5ZM372.66-12.4L359.91-12.6Q359.91-8.35 362.14-6 364.36-3.65 367.81-3.65L367.81-3.65Q370.51-3.65 374.21-5.35L374.21-5.35 375.11-3 367.31 0.7Q361.51 1 357.79-2.45 354.06-5.9 354.06-11.45L354.06-11.45Q354.06-16.85 357.54-20.73 361.01-24.6 365.96-24.6L365.96-24.6Q370.16-24.6 372.89-21.98 375.61-19.35 375.56-15.2L375.56-15.2 372.66-12.4ZM363.81-21.2L363.81-21.2Q361.16-19.7 360.26-15.6L360.26-15.6 370.01-16.1Q369.61-18.4 367.89-19.83 366.16-21.25 363.81-21.2ZM383.81-18.7L383.81-18.7Q383.81-17.2 385.06-16.28 386.31-15.35 388.91-14.2L388.91-14.2 392.26-12.5Q396.21-10.25 396.21-6.4L396.21-6.4Q396.21-3.15 393.66-1.07 391.11 1 387.06 1L387.06 1Q382.46 1 377.66-1.65L377.66-1.65 379.86-6.75Q384.36-3.5 389.46-2.5L389.46-2.5Q390.66-3.55 390.66-5.05L390.66-5.05Q390.66-6.45 389.63-7.43 388.61-8.4 384.86-10.1 381.11-11.8 379.76-13.43 378.41-15.05 378.41-17.2L378.41-17.2Q378.41-20.6 381.31-22.6 384.21-24.6 388.41-24.6L388.41-24.6Q392.26-24.6 395.26-23.05L395.26-23.05 395.31-23.05 395.36-21.85Q395.36-19.05 394.46-16.4L394.46-16.4 391.21-16.4 390.46-20.6Q387.81-21.45 385.51-21.3L385.51-21.3Q383.81-20.4 383.81-18.7ZM429.1-12.05L423.05-12.05 423.05-3.25 429-2.45 428.95 0 413.1 0 412.8-1.6Q414.6-2.55 416.95-3.35L416.95-3.35 416.95-29.85 413.35-30.2 413.4-32.7 428.45-33.1Q433.9-33.1 437.38-30.1 440.85-27.1 440.85-22.5L440.85-22.5Q440.85-18.1 437.53-15.1 434.2-12.1 429.1-12.05L429.1-12.05ZM430.9-29.7L423.05-28.95 423.05-15.95Q425.4-15.55 427.6-15.55L427.6-15.55Q431-15.55 432.7-17.6 434.4-19.65 434.4-22.65L434.4-22.65Q434.4-24.9 433.48-26.88 432.55-28.85 430.9-29.7L430.9-29.7ZM463.7-23.05L463.7-23.05Q463.8-18.75 462.35-14.25L462.35-14.25 459.1-14.25 458.3-19.85Q454.9-17.6 452.4-14.45L452.4-14.45 452.4-3.75Q456.15-3.25 457.6-2.4L457.6-2.4 457.4 0 443.05 0 442.85-1.7Q444.45-2.5 446.55-3.15L446.55-3.15 446.55-20.35 442.8-20.4 442.3-22.8Q445.75-24.2 450.15-24.45L450.15-24.45 452.4-22.45 452.4-18.2 457.5-23.75Q458.7-24.25 460.05-24.25L460.05-24.25Q462.2-24.25 463.7-23.05ZM464.45-11.9L464.45-11.9Q464.45-17.5 467.77-21.05 471.1-24.6 476.15-24.6 481.2-24.6 484.42-21.03 487.65-17.45 487.65-11.65L487.65-11.65Q487.65-5.9 484.47-2.45 481.3 1 476.3 1L476.3 1Q471.15 1 467.8-2.63 464.45-6.25 464.45-11.9ZM478.85-3L478.85-3Q481.6-4.85 481.6-11.1L481.6-11.1Q481.6-15.4 480.17-18.18 478.75-20.95 475.8-20.95L475.8-20.95Q473.9-20.95 472.6-20L472.6-20Q470.55-17.45 470.55-12.25L470.55-12.25Q470.55-8.15 472.1-5.4 473.65-2.65 476.75-2.65L476.75-2.65Q477.75-2.65 478.85-3ZM513.9-23.6L514.15-21.55 511.2-20.3Q506.6-7.4 503.65-0.15L503.65-0.15Q502.15 0.35 499.8 0.35L499.8 0.35 497.05 0.15 489.85-20.25 486.95-21.05 487-23.6 498.45-23.6 498.7-21.55 496.2-20.5 499.6-9.65 500.35-4.8 501.4-4.8Q503.2-10.75 505.45-20.5L505.45-20.5 502.85-21.05 502.9-23.6 513.9-23.6ZM521.74-28.3L521.74-28.3Q518.99-29.45 517.19-31.8L517.19-31.8Q518.69-34.8 520.89-36.35L520.89-36.35Q523.44-35.2 525.24-32.65L525.24-32.65Q524.09-29.85 521.74-28.3ZM524.39-22.45L524.39-3.6Q526.69-3.2 527.94-2.4L527.94-2.4 527.74 0 514.94 0 514.74-1.7Q516.19-2.45 518.54-3.15L518.54-3.15 518.54-20.35 514.79-20.4 514.29-22.8Q517.74-24.2 522.14-24.45L522.14-24.45 524.39-22.45ZM555.79-4.2L556.39-2 550.84 0.8Q549.79 0.7 548.51-0.45 547.24-1.6 546.64-3.1L546.64-3.1 541.09 0.8Q536.19 0.85 532.97-2.73 529.74-6.3 529.74-11.65L529.74-11.65Q529.74-17.2 533.41-20.9 537.09-24.6 542.59-24.6L542.59-24.6Q544.54-24.6 546.29-24.05L546.29-24.05 546.29-32.65 542.54-32.75 542.04-35.15Q545.49-36.55 549.89-36.8L549.89-36.8 552.14-34.75 552.14-4.9Q552.14-3.85 553.44-3.85L553.44-3.85 555.79-4.2ZM535.89-12.35L535.89-12.35Q535.89-8.8 537.56-6.43 539.24-4.05 542.04-4.05L542.04-4.05Q543.94-4.05 546.29-5.3L546.29-5.3 546.29-19.2Q543.79-20.9 540.79-20.9L540.79-20.9 539.19-20.75Q535.89-17.85 535.89-12.35ZM575.49-12.4L562.74-12.6Q562.74-8.35 564.96-6 567.19-3.65 570.64-3.65L570.64-3.65Q573.34-3.65 577.04-5.35L577.04-5.35 577.94-3 570.14 0.7Q564.34 1 560.61-2.45 556.89-5.9 556.89-11.45L556.89-11.45Q556.89-16.85 560.36-20.73 563.84-24.6 568.79-24.6L568.79-24.6Q572.99-24.6 575.71-21.98 578.44-19.35 578.39-15.2L578.39-15.2 575.49-12.4ZM566.64-21.2L566.64-21.2Q563.99-19.7 563.09-15.6L563.09-15.6 572.84-16.1Q572.44-18.4 570.71-19.83 568.99-21.25 566.64-21.2ZM600.83-23.05L600.83-23.05Q600.93-18.75 599.48-14.25L599.48-14.25 596.23-14.25 595.43-19.85Q592.03-17.6 589.53-14.45L589.53-14.45 589.53-3.75Q593.28-3.25 594.73-2.4L594.73-2.4 594.53 0 580.18 0 579.98-1.7Q581.58-2.5 583.68-3.15L583.68-3.15 583.68-20.35 579.93-20.4 579.43-22.8Q582.88-24.2 587.28-24.45L587.28-24.45 589.53-22.45 589.53-18.2 594.63-23.75Q595.83-24.25 597.18-24.25L597.18-24.25Q599.33-24.25 600.83-23.05Z" opacity="1" transform="matrix(1,0,0,1,0,0)" fill="#ceb700" class="undefined-text-1" data-fill-palette-color="secondary" id="text-1"></path></svg></g></svg></g></svg></g></svg></g></svg></g></svg></g></svg></g></svg><rect width="320" height="360" fill="none" stroke="none" visibility="hidden"></rect></g></svg></g></svg>